<svg width="512" height="512" viewBox="0 0 512 512" xmlns="http://www.w3.org/2000/svg">
  <defs>
    <clipPath id="avatarClip">
      <rect width="512" height="512" rx="120" />
    </clipPath>
    <linearGradient id="goggles" x1="128" y1="250" x2="384" y2="334" gradientUnits="userSpaceOnUse">
      <stop stop-color="#4CC9F0" />
      <stop offset="1" stop-color="#1B7CC7" />
    </linearGradient>
  </defs>
  <g clip-path="url(#avatarClip)">
    <rect width="512" height="512" fill="#9DFF4D" />
    <g>
      <path d="M62 210C50 160 68 126 116 130C140 132 160 142 176 168C186 120 220 90 256 90C292 90 326 120 336 168C352 142 372 132 396 130C444 126 462 160 450 210L420 330C404 394 346 430 256 430C166 430 108 394 92 330L62 210Z" fill="#5B3620" />
      <path d="M86 208C68 162 86 130 122 140C146 146 164 158 178 186C188 142 218 120 256 120C294 120 324 142 334 186C348 158 366 146 390 140C426 130 444 162 426 208L402 274C376 340 324 374 256 374C188 374 136 340 110 274L86 208Z" fill="#7C4B28" />
      <path d="M164 224C190 210 224 202 256 202C288 202 322 210 348 224C380 240 396 264 396 292C396 342 332 378 256 378C180 378 116 342 116 292C116 264 132 240 164 224Z" fill="#213649" />
      <rect x="126" y="236" width="260" height="132" rx="66" fill="#1B2F40" stroke="#173044" stroke-width="10" />
      <rect x="142" y="248" width="228" height="108" rx="54" fill="url(#goggles)" stroke="#0C2134" stroke-width="10" />
      <rect x="170" y="268" width="76" height="68" rx="34" fill="#C7F1FF" opacity="0.85" />
      <rect x="266" y="268" width="76" height="68" rx="34" fill="#C7F1FF" opacity="0.85" />
      <circle cx="212" cy="302" r="10" fill="#0E2230" />
      <circle cx="300" cy="302" r="10" fill="#0E2230" />
      <path d="M208 328C226 342 286 342 304 328" stroke="#0E2230" stroke-width="10" stroke-linecap="round" />
      <path d="M142 188C130 162 134 140 154 130C174 120 198 130 214 150L200 188C182 198 162 198 142 188Z" fill="#7C4B28" />
      <path d="M370 188C382 162 378 140 358 130C338 120 314 130 298 150L312 188C330 198 350 198 370 188Z" fill="#7C4B28" />
      <path d="M44 174C46 206 74 226 92 230C90 210 92 182 100 164C84 166 64 168 44 168V174Z" fill="#4A2C16" />
      <path d="M468 174C466 206 438 226 420 230C422 210 420 182 412 164C428 166 448 168 468 168V174Z" fill="#4A2C16" />
    </g>
  </g>
</svg>
